<svg width="96" height="96" xmlns="http://www.w3.org/2000/svg" xmlns:xlink="http://www.w3.org/1999/xlink" xml:space="preserve" overflow="hidden"><g transform="translate(-262 -238)"><path d="M283.9 265.1C281 259.3 276 262.8 276 266.1 276 271 283.9 277 283.9 277 283.9 277 291.8 270.9 291.8 266.1 291.8 262.8 286.9 259.3 283.9 265.1Z" fill="#FF66CC"/><path d="M336.1 255.1C333.2 249.3 328.2 252.8 328.2 256 328.2 260.9 336.1 266.9 336.1 266.9 336.1 266.9 344 260.9 344 256.1 344 252.8 339 249.3 336.1 255.1Z" fill="#FF66CC"/><path d="M283.9 259.2C285.1 258.4 286.5 258 287.9 258 288.7 258 289.5 258.1 290.2 258.4 300.1 251.3 313.1 250 324.2 255.1 324.4 253.8 324.9 252.5 325.7 251.4 311.4 244.9 294.6 247.9 283.4 258.9 283.6 259 283.7 259.1 283.9 259.2Z" fill="#FF66CC"/><path d="M339.6 269.3C345.3 279.4 345.5 291.6 340.1 301.8 341.3 302.8 342.1 304.1 342.6 305.5 349.8 293.5 349.8 278.5 342.6 266.4 341.7 267.5 340.7 268.4 339.6 269.3Z" fill="#FF66CC"/><path d="M323.5 317.2C306.3 324.6 286.3 316.7 278.8 299.5 275.7 292.2 275.2 284.1 277.4 276.5 276.3 275.4 275.3 274.1 274.4 272.8 267.1 292.5 277.1 314.4 296.8 321.7 306.5 325.3 317.2 324.8 326.5 320.3 325.4 319.3 324.4 318.3 323.5 317.2Z" fill="#FF66CC"/><path d="M331.1 307C328.2 301.2 323.2 304.7 323.2 307.9 323.2 312.8 331.1 318.8 331.1 318.8 331.1 318.8 339 312.9 339 308 339 304.7 334 301.2 331.1 307Z" fill="#FF66CC"/><path d="M287.3 286.3C286.2 286.1 285.5 285 285.8 283.9 287 278.5 292.3 275.1 297.7 276.2 301.6 277 304.6 280 305.4 283.9 305.6 285 304.9 286 303.9 286.3 303.8 286.3 303.6 286.3 303.5 286.3 302.6 286.3 301.7 285.6 301.5 284.7 300.8 281.5 297.6 279.4 294.4 280.1 292.1 280.6 290.3 282.4 289.8 284.7 289.4 285.8 288.3 286.5 287.3 286.3Z" fill="#FF66CC"/><path d="M310 307C304.4 307 299.1 304.5 295.5 300.3 294.8 299.4 294.9 298.2 295.8 297.5 296.6 296.8 297.8 296.9 298.5 297.7 303.9 304 313.4 304.8 319.8 299.4 320.4 298.9 321 298.3 321.5 297.7 322.2 296.8 323.4 296.7 324.3 297.4 325.2 298.1 325.3 299.3 324.6 300.2 324.6 300.2 324.5 300.3 324.5 300.3 320.9 304.5 315.6 307 310 307Z" fill="#FF66CC"/><path d="M332.7 286.3C332.6 286.3 332.4 286.3 332.3 286.3 331.4 286.3 330.5 285.6 330.3 284.7 329.6 281.5 326.4 279.4 323.2 280.1 320.9 280.6 319.1 282.4 318.6 284.7 318.3 285.8 317.3 286.4 316.2 286.2 315.2 286 314.5 284.9 314.7 283.9 315.9 278.5 321.2 275.1 326.6 276.2 330.5 277 333.5 280 334.3 283.9 334.5 285 333.8 286.1 332.7 286.3Z" fill="#FF66CC"/></g></svg>